Coordinates
version=1
nRows=7
nColumns=40
inDegrees=yes

Units are S.I. units (second, meters, Newtons, ...)
Angles are in degrees.

endheader
time	pelvis_tilt	pelvis_list	pelvis_rotation	pelvis_tx	pelvis_ty	pelvis_tz	hip_flexion_r	hip_adduction_r	hip_rotation_r	knee_angle_r	knee_angle_r_beta	ankle_angle_r	subtalar_angle_r	mtp_angle_r	hip_flexion_l	hip_adduction_l	hip_rotation_l	knee_angle_l	knee_angle_l_beta	ankle_angle_l	subtalar_angle_l	mtp_angle_l	lumbar_extension	lumbar_bending	lumbar_rotation	arm_flex_r	arm_add_r	arm_rot_r	elbow_flex_r	pro_sup_r	wrist_flex_r	wrist_dev_r	arm_flex_l	arm_add_l	arm_rot_l	elbow_flex_l	pro_sup_l	wrist_flex_l	wrist_dev_l
     58.65500000	     -6.03995245	     -8.20738576	      4.83226523	      0.97642152	      0.91430848	      0.49612029	     -0.38266768	      7.02869205	    -19.40147457	      6.85585934	      6.85585934	     15.77825936	      7.61698602	     -6.33119782	     36.49961558	    -10.56079002	      0.20072150	     19.13569726	     19.13569726	      6.83609436	     -7.12856401	     13.72111301	     -9.76514889	      6.96054583	      6.79547520	     50.69114339	    -18.76954500	     -0.67099121	     83.81856251	     44.60684311	      0.00000000	      0.00000000	    -21.39844648	     -8.35423006	     10.86404652	     25.06746417	     44.20599342	      0.00000000	      0.00000000
     58.66607143	     -5.93599116	     -8.11390983	      4.83045099	      0.97840116	      0.91279674	      0.49388609	     -0.78169989	      6.71996329	    -18.99006516	      7.76459848	      7.76459848	     17.21421858	      7.06354142	     -4.34485920	     35.69537515	    -10.35635946	     -0.62913497	     18.68289703	     18.68289703	      4.54179829	     -7.81831588	     10.08711259	     -9.55365092	      6.90563779	      7.09224803	     50.92896549	    -19.18417947	     -1.08686980	     86.68274662	     44.58908876	      0.00000000	      0.00000000	    -22.26609868	     -8.58261588	     11.25010019	     25.65061550	     44.21041870	      0.00000000	      0.00000000
     58.67714286	     -5.93084704	     -7.88939245	      4.86102728	      0.98018084	      0.91123898	      0.49146023	     -0.91897541	      6.20637555	    -18.56805699	      8.90092298	      8.90092298	     18.09017427	      6.14591951	     -4.13666115	     35.26606535	    -10.02290463	     -1.32024691	     18.97010706	     18.97010706	      3.41061406	     -8.29115585	      9.30123459	     -9.23806895	      6.68975593	      6.59480615	     51.55344572	    -18.74478318	     -1.06796739	     88.43400018	     44.55011233	      0.00000000	      0.00000000	    -23.07066793	     -8.43603671	     11.39916334	     25.48508268	     44.19619295	      0.00000000	      0.00000000
     58.68821429	     -5.78966292	     -7.66268430	      4.89499428	      0.98208991	      0.90999299	      0.48893955	     -1.17402921	      5.72681303	    -17.87587687	     10.12734269	     10.12734269	     19.32186418	      4.91462634	     -2.48778191	     34.67076452	     -9.68644638	     -1.66951066	     19.27069079	     19.27069079	      1.17411201	     -9.45351045	      5.74789340	     -9.12600957	      6.47191258	      6.80414246	     51.52296768	    -19.10179556	     -1.50664336	     91.26968772	     44.52857645	      0.00000000	      0.00000000	    -23.52114782	     -8.55541656	     11.59906904	     25.75246181	     44.23759902	      0.00000000	      0.00000000
     58.69928571	     -5.73648508	     -7.34074650	      4.96297679	      0.98372593	      0.90880991	      0.48619039	     -1.15667628	      5.04112718	    -17.50406032	     11.64067720	     11.64067720	     20.00175169	      3.86147021	     -2.48773121	     34.45873785	     -9.27304944	     -1.95327150	     20.23943775	     20.23943775	      0.44297120	    -10.06904963	      5.13321356	     -8.91347535	      6.18411245	      6.25750053	     51.96987616	    -18.59061108	     -1.50004033	     92.81499470	     44.49299612	      0.00000000	      0.00000000	    -23.96944249	     -8.36572333	     11.72955011	     25.53417122	     44.22845781	      0.00000000	      0.00000000
     58.71035714	     -5.64706438	     -6.99194951	      5.04068788	      0.98528230	      0.90791787	      0.48334844	     -1.06264032	      4.32966911	    -16.89755817	     13.34813573	     13.34813573	     20.61328127	      2.42393962	     -2.31604226	     34.25392187	     -8.81851709	     -1.99104554	     21.32240634	     21.32240634	     -0.16246665	    -10.85936451	      4.25482112	     -8.78612831	      5.86439770	      5.89187264	     52.04865539	    -18.34453731	     -1.63387958	     94.70515732	     44.45178093	      0.00000000	      0.00000000	    -24.12929980	     -8.25049402	     11.80933591	     25.44389888	     44.23488180	      0.00000000	      0.00000000
     58.72142857	     -5.52623978	     -6.63026293	      5.13841412	      0.98671924	      0.90735008	      0.48037926	     -0.85555499	      3.58275154	    -16.21895189	     15.30468769	     15.30468769	     21.08419294	      0.83670175	     -2.17347985	     34.04616140	     -8.33902978	     -1.88728448	     22.46891266	     22.46891266	     -0.46298567	    -11.65540580	      3.34483378	     -8.72813592	      5.53922063	      5.64916648	     51.82994311	    -18.26110363	     -1.91587563	     96.82188778	     44.40986982	      0.00000000	      0.00000000	    -23.99187069	     -8.16619481	     11.89071494	     25.35181605	     44.24988428	      0.00000000	      0.00000000
